<svg width="24" height="24" viewBox="0 0 24 24" fill="none" xmlns="http://www.w3.org/2000/svg">
<path d="M22.5456 9.70499L15.0456 2.20499C14.8883 2.04754 14.6879 1.94027 14.4696 1.89676C14.2513 1.85325 14.0251 1.87545 13.8194 1.96055C13.6138 2.04566 13.438 2.18984 13.3143 2.37487C13.1907 2.55989 13.1247 2.77744 13.1246 2.99999V6.44437C10.7096 6.73687 8.09402 7.93406 5.92933 9.76968C3.19558 12.0891 1.49308 15.0844 1.13495 18.2072C1.09867 18.5206 1.16212 18.8374 1.31626 19.1126C1.47041 19.3879 1.70741 19.6075 1.99357 19.7403C2.27972 19.8731 2.60046 19.9123 2.91017 19.8523C3.21989 19.7924 3.50281 19.6363 3.7187 19.4062C4.69933 18.3619 8.12495 15.1181 13.1246 14.6794V18C13.1248 18.2224 13.1909 18.4397 13.3146 18.6245C13.4382 18.8093 13.6138 18.9534 13.8193 19.0384C14.0247 19.1235 14.2507 19.1458 14.4688 19.1024C14.6869 19.0591 14.8873 18.9521 15.0446 18.795L22.5446 11.295C22.7554 11.0842 22.8739 10.7983 22.8741 10.5002C22.8743 10.2021 22.7561 9.91605 22.5456 9.70499ZM15.3746 15.2812V13.5C15.3746 13.2016 15.2561 12.9155 15.0451 12.7045C14.8342 12.4935 14.548 12.375 14.2496 12.375C9.65589 12.375 6.1337 14.3962 3.95683 16.1353C4.62527 14.4328 5.79714 12.8334 7.38527 11.4862C9.49652 9.69468 12.0625 8.62499 14.2496 8.62499C14.548 8.62499 14.8342 8.50647 15.0451 8.29549C15.2561 8.08451 15.3746 7.79836 15.3746 7.49999V5.71874L20.1559 10.5L15.3746 15.2812Z" fill="black"/>
</svg>
