<svg width="64" height="64" viewBox="0 0 64 64" fill="none" xmlns="http://www.w3.org/2000/svg">
<g clip-path="url(#clip0_45_3543)">
<path d="M32 64C49.6731 64 64 49.6731 64 32C64 14.3269 49.6731 0 32 0C14.3269 0 0 14.3269 0 32C0 49.6731 14.3269 64 32 64Z" fill="white"/>
<path d="M32 0C18.2411 0 6.51173 8.684 1.99036 20.8696H62.0097C57.4882 8.684 45.7589 0 32 0Z" fill="#D80027"/>
<path d="M32 64C45.7589 64 57.4882 55.316 62.0096 43.1304H1.99036C6.51173 55.316 18.2411 64 32 64Z" fill="black"/>
<path d="M43.1304 28.5216H34.7825C34.7825 26.9849 33.5366 25.739 31.9999 25.739C30.4631 25.739 29.2173 26.9849 29.2173 28.5216H20.8694C20.8694 30.0585 22.208 31.3043 23.7448 31.3043H23.652C23.652 32.8411 24.8978 34.0869 26.4346 34.0869C26.4346 35.6238 27.6804 36.8695 29.2173 36.8695H34.7825C36.3194 36.8695 37.5651 35.6238 37.5651 34.0869C39.102 34.0869 40.3478 32.8411 40.3478 31.3043H40.2551C41.7919 31.3043 43.1304 30.0585 43.1304 28.5216Z" fill="#FF9811"/>
</g>
<defs>
<clipPath id="clip0_45_3543">
<rect width="64" height="64" fill="white"/>
</clipPath>
</defs>
</svg>
