<svg width="64" height="64" viewBox="0 0 64 64" fill="none" xmlns="http://www.w3.org/2000/svg">
<g clip-path="url(#clip0_45_3569)">
<path d="M32 64C49.6731 64 64 49.6731 64 32C64 14.3269 49.6731 0 32 0C14.3269 0 0 14.3269 0 32C0 49.6731 14.3269 64 32 64Z" fill="white"/>
<path d="M63.7291 27.8261H36.1741H36.174V0.270875C34.8076 0.093 33.4146 0 32 0C30.5854 0 29.1924 0.093 27.8261 0.270875V27.8259V27.826H0.270875C0.093 29.1924 0 30.5854 0 32C0 33.4149 0.093 34.8076 0.270875 36.1739H27.8259H27.826V63.7291C29.1924 63.907 30.5854 64 32 64C33.4146 64 34.8076 63.9071 36.1739 63.7291V36.1741V36.174H63.7291C63.907 34.8076 64 33.4149 64 32C64 30.5854 63.907 29.1924 63.7291 27.8261Z" fill="#D80027"/>
<path d="M19.4782 15.3044V11.1304H15.3044V15.3044H11.1304V19.4782H15.3044V23.6521H19.4782V19.4782H23.6521V15.3044H19.4782Z" fill="#D80027"/>
<path d="M48.6957 15.3044V11.1304H44.5218V15.3044H40.3479V19.4782H44.5218V23.6521H48.6957V19.4782H52.8697V15.3044H48.6957Z" fill="#D80027"/>
<path d="M19.4782 44.5218V40.3479H15.3044V44.5218H11.1304V48.6957H15.3044V52.8697H19.4782V48.6957H23.6521V44.5218H19.4782Z" fill="#D80027"/>
<path d="M48.6957 44.5218V40.3479H44.5218V44.5218H40.3479V48.6957H44.5218V52.8697H48.6957V48.6957H52.8697V44.5218H48.6957Z" fill="#D80027"/>
</g>
<defs>
<clipPath id="clip0_45_3569">
<rect width="64" height="64" fill="white"/>
</clipPath>
</defs>
</svg>
