<svg width="64" height="64" viewBox="0 0 64 64" fill="none" xmlns="http://www.w3.org/2000/svg">
<g clip-path="url(#clip0_45_3491)">
<path d="M32 64C49.6731 64 64 49.6731 64 32C64 14.3269 49.6731 0 32 0C14.3269 0 0 14.3269 0 32C0 49.6731 14.3269 64 32 64Z" fill="#D80027"/>
<path d="M30.6898 26.1482L33.3154 29.7663L37.5675 28.3876L34.9378 32.0026L37.563 35.6206L33.3124 34.2366L30.6828 37.8516L30.6855 33.3814L26.4348 31.9974L30.687 30.6187L30.6898 26.1482Z" fill="white"/>
<path d="M23.5243 41.0434C18.5298 41.0434 14.4808 36.9944 14.4808 31.9999C14.4808 27.0054 18.5298 22.9564 23.5243 22.9564C25.0815 22.9564 26.5468 23.3503 27.826 24.0434C25.8191 22.0806 23.0745 20.8694 20.046 20.8694C13.8988 20.8694 8.91565 25.8526 8.91565 31.9998C8.91565 38.1469 13.8989 43.1301 20.046 43.1301C23.0748 43.1301 25.8193 41.9188 27.826 39.9561C26.5468 40.6495 25.0815 41.0434 23.5243 41.0434Z" fill="white"/>
</g>
<defs>
<clipPath id="clip0_45_3491">
<rect width="64" height="64" fill="white"/>
</clipPath>
</defs>
</svg>
