<svg width="64" height="64" viewBox="0 0 64 64" fill="none" xmlns="http://www.w3.org/2000/svg">
<g clip-path="url(#clip0_45_3517)">
<path d="M1.511 22.261C0.53075 25.332 -0.000124978 28.6036 2.20693e-08 31.9998C-0.000124978 35.396 0.530875 38.6679 1.51112 41.7389L32 43.1304L62.4889 41.7391C63.469 38.668 64.0001 35.396 64.0001 32C64 28.6038 63.4691 25.332 62.4889 22.2609L32 20.8696L1.511 22.261Z" fill="white"/>
<path d="M62.4888 22.2609L31.9999 20.8696L1.51088 22.2609C1.22038 23.1714 0.970253 24.0998 0.760628 25.0435H63.2386C63.0293 24.0996 62.7793 23.1711 62.4888 22.2609Z" fill="#D80027"/>
<path d="M0.761002 38.9563C0.970377 39.9 1.2205 40.8283 1.511 41.7388L1.514 41.7389L31.9998 43.1302L62.4886 41.7389C62.7791 40.8284 63.0292 39.9 63.2387 38.9563H0.761002Z" fill="#D80027"/>
<path d="M31.9999 63.9999C46.2769 63.9999 58.3681 54.6495 62.4888 41.739H1.51112C5.63175 54.6494 17.7232 63.9999 31.9999 63.9999Z" fill="#6DA544"/>
<path d="M31.9999 0.000244142C17.7231 0.000369142 5.63188 9.35074 1.511 22.2611L62.4886 22.2612C58.3682 9.35062 46.2769 0.000119142 31.9999 0.000244142Z" fill="#338AF3"/>
<path d="M14.6233 13.2173C14.6233 10.2202 16.7296 7.71642 19.5425 7.10217C19.1103 7.00767 18.6616 6.95654 18.2009 6.95654C14.7431 6.95654 11.94 9.75954 11.94 13.2174C11.94 16.6753 14.7429 19.4783 18.2009 19.4783C18.6616 19.4783 19.1101 19.427 19.5425 19.3327C16.7298 18.7182 14.6233 16.2144 14.6233 13.2173Z" fill="white"/>
<path d="M23.243 16.0635L23.6668 17.3679H25.0383L23.9288 18.1741L24.3525 19.4785L23.243 18.6724L22.1333 19.4785L22.5571 18.1741L21.4475 17.3679H22.819L23.243 16.0635Z" fill="white"/>
<path d="M27.6205 16.0635L28.0444 17.3679H29.4159L28.3063 18.1741L28.7301 19.4785L27.6205 18.6724L26.5109 19.4785L26.9348 18.1741L25.8253 17.3679H27.1966L27.6205 16.0635Z" fill="white"/>
<path d="M31.9981 16.0635L32.4219 17.3679H33.7935L32.6839 18.1741L33.1076 19.4785L31.9981 18.6724L30.8884 19.4785L31.3124 18.1741L30.2026 17.3679H31.5743L31.9981 16.0635Z" fill="white"/>
<path d="M36.3758 16.0635L36.7996 17.3679H38.171L37.0615 18.1741L37.4854 19.4785L36.3758 18.6724L35.266 19.4785L35.69 18.1741L34.5803 17.3679H35.9518L36.3758 16.0635Z" fill="white"/>
<path d="M40.7533 16.0635L41.1771 17.3679H42.5486L41.4391 18.1741L41.863 19.4785L40.7533 18.6724L39.6436 19.4785L40.0675 18.1741L38.958 17.3679H40.3294L40.7533 16.0635Z" fill="white"/>
<path d="M27.6205 11.51L28.0444 12.8143H29.4159L28.3063 13.6206L28.7301 14.9249L27.6205 14.1188L26.5109 14.9249L26.9348 13.6206L25.8253 12.8143H27.1966L27.6205 11.51Z" fill="white"/>
<path d="M31.9981 11.51L32.4219 12.8143H33.7935L32.6839 13.6206L33.1076 14.9249L31.9981 14.1188L30.8884 14.9249L31.3124 13.6206L30.2026 12.8143H31.5743L31.9981 11.51Z" fill="white"/>
<path d="M36.3758 11.51L36.7996 12.8143H38.171L37.0615 13.6206L37.4854 14.9249L36.3758 14.1188L35.266 14.9249L35.69 13.6206L34.5803 12.8143H35.9518L36.3758 11.51Z" fill="white"/>
<path d="M40.7533 11.51L41.1771 12.8143H42.5486L41.4391 13.6206L41.863 14.9249L40.7533 14.1188L39.6436 14.9249L40.0675 13.6206L38.958 12.8143H40.3294L40.7533 11.51Z" fill="white"/>
<path d="M31.9981 6.95654L32.4219 8.26104H33.7935L32.6839 9.06717L33.1076 10.3717L31.9981 9.56554L30.8884 10.3717L31.3124 9.06717L30.2026 8.26104H31.5743L31.9981 6.95654Z" fill="white"/>
<path d="M36.3758 6.95654L36.7996 8.26104H38.171L37.0615 9.06717L37.4854 10.3717L36.3758 9.56554L35.266 10.3717L35.69 9.06717L34.5803 8.26104H35.9518L36.3758 6.95654Z" fill="white"/>
<path d="M40.7533 6.95654L41.1771 8.26104H42.5486L41.4391 9.06717L41.863 10.3717L40.7533 9.56554L39.6436 10.3717L40.0675 9.06717L38.958 8.26104H40.3294L40.7533 6.95654Z" fill="white"/>
</g>
<defs>
<clipPath id="clip0_45_3517">
<rect width="64" height="64" fill="white"/>
</clipPath>
</defs>
</svg>
